<?xml version="1.0" encoding="utf-8"?>
<!-- Generator: Adobe Illustrator 17.0.0, SVG Export Plug-In . SVG Version: 6.00 Build 0)  -->
<!DOCTYPE svg PUBLIC "-//W3C//DTD SVG 1.1//EN" "http://www.w3.org/Graphics/SVG/1.1/DTD/svg11.dtd">
<svg version="1.1" id="Layer_1" xmlns="http://www.w3.org/2000/svg" xmlns:xlink="http://www.w3.org/1999/xlink" x="0px" y="0px"
	 width="82px" height="82px" viewBox="0 0 82 82" enable-background="new 0 0 82 82" xml:space="preserve">
<g>
	<path fill="#FFFFFF" d="M41,82C18.393,82,0,63.607,0,41S18.393,0,41,0s41,18.393,41,41S63.607,82,41,82z M41,4
		C20.598,4,4,20.598,4,41s16.598,37,37,37s37-16.598,37-37S61.402,4,41,4z"/>
	<g>
		<polygon fill="#FFFFFF" points="45,35.333 45,49.952 37,45.19 37,35.333 24,35.333 24,62.333 58,62.333 58,35.333 		"/>
		<polygon fill="#FFFFFF" points="38.252,21.333 30.384,21.333 24.432,32.333 37,32.333 37,32.095 		"/>
		<polygon fill="#FFFFFF" points="45,32.333 57.765,32.333 51.813,21.333 43.891,21.333 45,32.095 		"/>
	</g>
</g>
</svg>
