<?xml version="1.0" encoding="utf-8"?>
<!-- Generator: Adobe Illustrator 17.0.0, SVG Export Plug-In . SVG Version: 6.00 Build 0)  -->
<!DOCTYPE svg PUBLIC "-//W3C//DTD SVG 1.1//EN" "http://www.w3.org/Graphics/SVG/1.1/DTD/svg11.dtd">
<svg version="1.1" id="Layer_1" xmlns="http://www.w3.org/2000/svg" xmlns:xlink="http://www.w3.org/1999/xlink" x="0px" y="0px"
	 width="82px" height="82px" viewBox="0 0 82 82" enable-background="new 0 0 82 82" xml:space="preserve">
<g>
	<path fill="#FFFFFF" d="M41,82C18.393,82,0,63.607,0,41S18.393,0,41,0s41,18.393,41,41S63.607,82,41,82z M41,4
		C20.598,4,4,20.598,4,41s16.598,37,37,37s37-16.598,37-37S61.402,4,41,4z"/>
	<g>
		<path fill="#FFFFFF" d="M41,22.432c-9.691,0-15.712,3.193-15.386,5.783l3.265,26.872c0.131,1.046,5.029,4.476,12.121,4.481
			c7.09-0.005,11.989-3.436,12.12-4.481l3.265-26.872C56.711,25.625,50.691,22.432,41,22.432z M41,32.147
			c-7.091-0.005-12.121-2.532-12.121-3.475c-0.004-0.938,5.03-3.468,12.121-3.465c7.09-0.004,12.124,2.526,12.12,3.465
			C53.12,29.616,48.09,32.142,41,32.147z"/>
	</g>
</g>
</svg>
