<?xml version="1.0" encoding="utf-8"?>
<!-- Generator: Adobe Illustrator 17.0.0, SVG Export Plug-In . SVG Version: 6.00 Build 0)  -->
<!DOCTYPE svg PUBLIC "-//W3C//DTD SVG 1.1//EN" "http://www.w3.org/Graphics/SVG/1.1/DTD/svg11.dtd">
<svg version="1.1" id="Layer_1" xmlns="http://www.w3.org/2000/svg" xmlns:xlink="http://www.w3.org/1999/xlink" x="0px" y="0px"
	 width="82px" height="82px" viewBox="0 0 82 82" enable-background="new 0 0 82 82" xml:space="preserve">
<g>
	<path fill="#FFFFFF" d="M41,82C18.393,82,0,63.607,0,41S18.393,0,41,0s41,18.393,41,41S63.608,82,41,82z M41,4
		C20.598,4,4,20.598,4,41s16.598,37,37,37s37-16.598,37-37S61.403,4,41,4z"/>
	<path fill="#FFFFFF" d="M59.116,21.073H22.886c-2.491,0-4.529,2.038-4.529,4.529V50.51c0,2.491,1.998,4.929,4.441,5.417l9.9,1.98
		c0,0-8.521,3.019-3.019,3.019h22.644c5.503,0-3.019-3.019-3.019-3.019l9.901-1.98c2.442-0.489,4.44-2.926,4.44-5.417V25.602
		C63.645,23.111,61.607,21.073,59.116,21.073z M59.116,50.284H22.886V25.149h36.231V50.284z"/>
</g>
</svg>
