<?xml version="1.0" encoding="utf-8"?>
<!-- Generator: Adobe Illustrator 17.0.0, SVG Export Plug-In . SVG Version: 6.00 Build 0)  -->
<!DOCTYPE svg PUBLIC "-//W3C//DTD SVG 1.1//EN" "http://www.w3.org/Graphics/SVG/1.1/DTD/svg11.dtd">
<svg version="1.1" id="Layer_1" xmlns="http://www.w3.org/2000/svg" xmlns:xlink="http://www.w3.org/1999/xlink" x="0px" y="0px"
	 width="82px" height="82px" viewBox="0 0 82 82" enable-background="new 0 0 82 82" xml:space="preserve">
<g>
	<path fill="#FFFFFF" d="M41,82C18.393,82,0,63.607,0,41S18.393,0,41,0s41,18.393,41,41S63.607,82,41,82z M41,4
		C20.598,4,4,20.598,4,41s16.598,37,37,37s37-16.598,37-37S61.402,4,41,4z"/>
	<g>
		<path fill="#FFFFFF" d="M57.28,32.014c-3.786-3.474-9.923-3.474-13.709,0L41,34.374l-2.571-2.359
			c-3.785-3.474-9.923-3.474-13.709,0c-4.259,3.909-4.259,10.246,0,14.155L41,61.11l16.28-14.941
			C61.538,42.26,61.538,35.923,57.28,32.014z"/>
	</g>
</g>
</svg>
