<?xml version="1.0" encoding="utf-8"?>
<!-- Generator: Adobe Illustrator 17.0.0, SVG Export Plug-In . SVG Version: 6.00 Build 0)  -->
<!DOCTYPE svg PUBLIC "-//W3C//DTD SVG 1.1//EN" "http://www.w3.org/Graphics/SVG/1.1/DTD/svg11.dtd">
<svg version="1.1" id="Layer_1" xmlns="http://www.w3.org/2000/svg" xmlns:xlink="http://www.w3.org/1999/xlink" x="0px" y="0px"
	 width="82px" height="82px" viewBox="0 0 82 82" enable-background="new 0 0 82 82" xml:space="preserve">
<path fill="#FFFFFF" d="M41,82C18.393,82,0,63.607,0,41S18.393,0,41,0s41,18.393,41,41S63.607,82,41,82z M41,4
	C20.598,4,4,20.598,4,41s16.598,37,37,37s37-16.598,37-37S61.402,4,41,4z"/>
<g>
	<path fill="#FFFFFF" d="M41.354,57.981c-0.868,0-1.726-0.228-2.481-0.659L19.97,46.52l-2.802,1.316
		c-0.675,0.317-1.118,0.984-1.147,1.73c-0.03,0.746,0.357,1.446,1.006,1.816l23.335,13.335c0.308,0.176,0.649,0.264,0.992,0.264
		c0.336,0,0.672-0.084,0.975-0.254l22.628-12.628c0.65-0.363,1.046-1.058,1.024-1.803s-0.455-1.417-1.125-1.742l-2.839-1.379
		l-18.22,10.168C43.053,57.761,42.208,57.981,41.354,57.981z"/>
</g>
<path fill="#FFFFFF" d="M64.855,28.554L41.52,17.22c-0.545-0.264-1.178-0.268-1.725-0.012L17.168,27.836
	c-0.675,0.317-1.118,0.984-1.147,1.73c-0.03,0.746,0.357,1.446,1.006,1.816l23.335,13.335c0.308,0.176,0.649,0.264,0.992,0.264
	c0.336,0,0.672-0.084,0.975-0.254l22.628-12.628c0.65-0.363,1.046-1.058,1.024-1.803S65.525,28.88,64.855,28.554z"/>
<g>
	<path fill="#FFFFFF" d="M41.354,47.981c-0.868,0-1.726-0.228-2.481-0.659L19.97,36.52l-2.802,1.316
		c-0.675,0.317-1.118,0.984-1.147,1.73c-0.03,0.746,0.357,1.446,1.006,1.816l23.335,13.335c0.308,0.176,0.649,0.264,0.992,0.264
		c0.336,0,0.672-0.084,0.975-0.254l22.628-12.628c0.65-0.363,1.046-1.058,1.024-1.803s-0.455-1.417-1.125-1.742l-2.839-1.379
		l-18.22,10.168C43.053,47.761,42.208,47.981,41.354,47.981z"/>
</g>
</svg>
