<?xml version="1.0" encoding="utf-8"?>
<!-- Generator: Adobe Illustrator 17.0.0, SVG Export Plug-In . SVG Version: 6.00 Build 0)  -->
<!DOCTYPE svg PUBLIC "-//W3C//DTD SVG 1.1//EN" "http://www.w3.org/Graphics/SVG/1.1/DTD/svg11.dtd">
<svg version="1.1" id="Layer_1" xmlns="http://www.w3.org/2000/svg" xmlns:xlink="http://www.w3.org/1999/xlink" x="0px" y="0px"
	 width="100.001px" height="126px" viewBox="-30.001 -38 100.001 126" enable-background="new -30.001 -38 100.001 126"
	 xml:space="preserve">
<g>
	<g>
		<path fill="#FFFFFF" d="M41.27,55.192c0,2.948-2.381,5.34-5.317,5.34H4.052c-2.936,0-5.315-2.391-5.315-5.34l0,0
			c0-2.951,2.381-5.342,5.315-5.342h31.901C38.888,49.85,41.27,52.241,41.27,55.192L41.27,55.192z"/>
		<path fill="#FFFFFF" d="M37.422,68.924c0,2.951-2.381,5.34-5.317,5.34H7.897c-2.936,0-5.315-2.389-5.315-5.34l0,0
			c0-2.951,2.381-5.34,5.315-5.34h24.207C35.04,63.584,37.422,65.975,37.422,68.924L37.422,68.924z"/>
		<path fill="#FFFFFF" d="M33.576,82.658c0,2.951-2.381,5.342-5.317,5.342H11.745c-2.936,0-5.315-2.391-5.315-5.342l0,0
			c0-2.948,2.381-5.34,5.315-5.34h16.514C31.195,77.318,33.576,79.709,33.576,82.658L33.576,82.658z"/>
	</g>
	<path fill="#FFFFFF" d="M56.851,42.816c-1.061,0-2.132-0.307-3.077-0.953c-2.507-1.709-3.16-5.138-1.459-7.656
		c4.39-6.497,6.711-14.099,6.711-21.982c0-21.617-17.506-39.201-39.025-39.201S-19.024-9.39-19.024,12.226
		c0,7.883,2.321,15.485,6.711,21.982c1.701,2.52,1.048,5.947-1.459,7.656c-2.505,1.711-5.919,1.053-7.623-1.464
		c-5.63-8.331-8.606-18.076-8.606-28.174C-29.999-15.469-7.568-38,20.001-38S70-15.469,70,12.226c0,10.1-2.976,19.842-8.606,28.174
		C60.333,41.972,58.607,42.816,56.851,42.816z"/>
</g>
</svg>
