<?xml version="1.0" encoding="utf-8"?>
<!-- Generator: Adobe Illustrator 17.0.0, SVG Export Plug-In . SVG Version: 6.00 Build 0)  -->
<!DOCTYPE svg PUBLIC "-//W3C//DTD SVG 1.1//EN" "http://www.w3.org/Graphics/SVG/1.1/DTD/svg11.dtd">
<svg version="1.1" id="Layer_1" xmlns="http://www.w3.org/2000/svg" xmlns:xlink="http://www.w3.org/1999/xlink" x="0px" y="0px"
	 width="40px" height="50px" viewBox="0 0 40 50" enable-background="new 0 0 40 50" xml:space="preserve">
<g>
	<g>
		<path fill="#2D4255" d="M28.44,36.981c0,1.17-0.945,2.119-2.11,2.119H13.671c-1.165,0-2.109-0.949-2.109-2.119l0,0
			c0-1.171,0.945-2.12,2.109-2.12h12.659C27.495,34.861,28.44,35.81,28.44,36.981L28.44,36.981z"/>
		<path fill="#2D4255" d="M26.913,42.43c0,1.171-0.945,2.119-2.11,2.119h-9.606c-1.165,0-2.109-0.948-2.109-2.119l0,0
			c0-1.171,0.945-2.119,2.109-2.119h9.606C25.968,40.311,26.913,41.26,26.913,42.43L26.913,42.43z"/>
		<path fill="#2D4255" d="M25.387,47.88c0,1.171-0.945,2.12-2.11,2.12h-6.553c-1.165,0-2.109-0.949-2.109-2.12l0,0
			c0-1.17,0.945-2.119,2.109-2.119h6.553C24.442,45.761,25.387,46.71,25.387,47.88L25.387,47.88z"/>
	</g>
	<path fill="#2D4255" d="M34.623,32.07c-0.421,0-0.846-0.122-1.221-0.378c-0.995-0.678-1.254-2.039-0.579-3.038
		c1.742-2.578,2.663-5.595,2.663-8.723c0-8.578-6.947-15.556-15.486-15.556S4.514,11.353,4.514,19.931
		c0,3.128,0.921,6.145,2.663,8.723c0.675,1,0.416,2.36-0.579,3.038c-0.994,0.679-2.349,0.418-3.025-0.581
		c-2.234-3.306-3.415-7.173-3.415-11.18C0.159,8.941,9.06,0,20,0s19.841,8.941,19.841,19.931c0,4.008-1.181,7.874-3.415,11.18
		C36.005,31.735,35.32,32.07,34.623,32.07z"/>
</g>
</svg>
